<svg aria-hidden="true" style="position: absolute; width: 0; height: 0; overflow: hidden;" version="1.1" xmlns="http://www.w3.org/2000/svg" xmlns:xlink="http://www.w3.org/1999/xlink">
<defs>
<symbol id="icon-Cart" viewBox="0 0 32 32">
<path fill="#ff9f0e" style="fill: var(--color1, #ff9f0e)" d="M1.504 12.4h29.001v-2.133h-29.001v2.133zM29.87 11.766v0.937h2.133v-0.937h-2.133zM26.427 29.467h-20.847v2.133h20.847v-2.133zM2.137 12.703v-0.937h-2.133v0.937h2.133zM6.182 29.838c-2.66-5.32-4.045-11.187-4.045-17.135h-2.133c0 6.281 1.461 12.474 4.271 18.091l1.907-0.956zM5.58 29.467c0.256 0 0.489 0.145 0.602 0.371l-1.907 0.956c0.121 0.242 0.308 0.446 0.538 0.588s0.496 0.218 0.767 0.218v-2.133zM25.826 29.838c0.056-0.112 0.142-0.206 0.248-0.271s0.229-0.1 0.354-0.1v2.133c0.555 0 1.058-0.312 1.306-0.806l-1.907-0.956zM29.87 12.703c0 5.948-1.387 11.814-4.045 17.135l1.907 0.956c2.809-5.617 4.271-11.811 4.271-18.091h-2.133zM30.504 12.4c-0.168 0-0.329-0.067-0.448-0.186s-0.186-0.28-0.186-0.448h2.133c0-0.398-0.158-0.779-0.439-1.060s-0.663-0.439-1.060-0.439v2.133zM1.504 10.267c-0.398 0-0.779 0.158-1.060 0.439s-0.439 0.663-0.439 1.060h2.133c0 0.168-0.067 0.329-0.186 0.448s-0.28 0.186-0.448 0.186v-2.133zM8.386 11.882l6.4-10.667-1.833-1.097-6.4 10.667 1.833 1.096zM17.222 1.215l6.4 10.667 1.83-1.096-6.4-10.667-1.83 1.097zM10.67 20.933h10.667v-2.133h-10.667v2.133z"></path>
</symbol>
<symbol id="icon-play" viewBox="0 0 32 32">
<path d="M22.809 15.271c-0.019 0.197-0.138 0.412-0.414 0.631-2.703 2.145-5.406 4.29-8.109 6.434-0.577 0.458-1.947 0.565-1.947-0.513 0-3.969 0-7.938 0-11.906 0-0.975 1.47-1.215 2.058-0.818 2.703 1.824 5.406 3.648 8.109 5.472 0.31 0.209 0.377 0.459 0.302 0.7zM32 18.654c-0.857 20.541-35.471 16.286-31.715-5.337 1.576-9.073 9.11-13.845 17.388-13.27 9.318 0.647 14.158 9.123 14.326 18.471 0 0.024-0.015 0.043-0.018 0.066 0.003 0.025 0.020 0.042 0.019 0.070zM30.263 18.92c-0.141-6.617-2.487-13.763-8.542-16.608-8.024-3.77-17.479 0.676-19.518 9.838-1.824 8.194 2.232 15.459 9.654 18.087 7.911 2.801 17.973-1.607 18.406-11.318z" fill="white"></path>
</symbol>
<symbol id="icon-paw" viewBox="0 0 34 32">
<path d="M16.99 14.895c1.374-2.092 3.707-1.547 6.788-2.519 4.489-1.396 6.563 0.368 5.953 2.372-0.555 1.96-3.519 2.417-4.571 4.341-1.194 1.867-0.067 4.374-1.665 5.879-1.542 1.462-4.26 0.794-5.309-3.468-0.681-2.856-2.482-4.411-1.195-6.604z"></path>
<path d="M18.489 8.891c0.96 2.096 2.947 3.215 4.384 2.608s1.812-2.886 0.796-4.938c-0.96-2.096-2.891-3.259-4.384-2.608s-1.757 2.842-0.796 4.938z"></path>
<path d="M12.349 19.595c2.391-0.418 4.373 0.453 4.48 1.904s-1.764 2.916-4.14 3.242c-2.391 0.418-4.373-0.453-4.48-1.904s1.764-2.916 4.14-3.242z"></path>
<path d="M11.696 11.852c1.975 1.502 4.497 1.705 5.664 0.443s0.452-3.576-1.523-5.078-4.497-1.705-5.664-0.443c-1.167 1.262-0.452 3.576 1.523 5.078z"></path>
<path d="M11.029 12.394c2.363 0.702 3.745 2.419 3.144 3.877s-2.952 2.064-5.315 1.363c-2.363-0.702-3.745-2.419-3.144-3.877s2.952-2.065 5.315-1.363z"></path>
</symbol>
</defs>
</svg>
