<svg aria-hidden="true" style="position: absolute; width: 0; height: 0; overflow: hidden;" version="1.1" xmlns="http://www.w3.org/2000/svg" xmlns:xlink="http://www.w3.org/1999/xlink">
<defs>
<symbol id="icon-Cart" viewBox="0 0 32 32">
<path fill="#ff9f0e" style="fill: var(--color1, #ff9f0e)" d="M1.504 12.4h29.001v-2.133h-29.001v2.133zM29.87 11.766v0.937h2.133v-0.937h-2.133zM26.427 29.467h-20.847v2.133h20.847v-2.133zM2.137 12.703v-0.937h-2.133v0.937h2.133zM6.182 29.838c-2.66-5.32-4.045-11.187-4.045-17.135h-2.133c0 6.281 1.461 12.474 4.271 18.091l1.907-0.956zM5.58 29.467c0.256 0 0.489 0.145 0.602 0.371l-1.907 0.956c0.121 0.242 0.308 0.446 0.538 0.588s0.496 0.218 0.767 0.218v-2.133zM25.826 29.838c0.056-0.112 0.142-0.206 0.248-0.271s0.229-0.1 0.354-0.1v2.133c0.555 0 1.058-0.312 1.306-0.806l-1.907-0.956zM29.87 12.703c0 5.948-1.387 11.814-4.045 17.135l1.907 0.956c2.809-5.617 4.271-11.811 4.271-18.091h-2.133zM30.504 12.4c-0.168 0-0.329-0.067-0.448-0.186s-0.186-0.28-0.186-0.448h2.133c0-0.398-0.158-0.779-0.439-1.060s-0.663-0.439-1.060-0.439v2.133zM1.504 10.267c-0.398 0-0.779 0.158-1.060 0.439s-0.439 0.663-0.439 1.060h2.133c0 0.168-0.067 0.329-0.186 0.448s-0.28 0.186-0.448 0.186v-2.133zM8.386 11.882l6.4-10.667-1.833-1.097-6.4 10.667 1.833 1.096zM17.222 1.215l6.4 10.667 1.83-1.096-6.4-10.667-1.83 1.097zM10.67 20.933h10.667v-2.133h-10.667v2.133z"></path>
</symbol>
<symbol id="icon-play" viewBox="0 0 32 32">
<path d="M22.809 15.271c-0.019 0.197-0.138 0.412-0.414 0.631-2.703 2.145-5.406 4.29-8.109 6.434-0.577 0.458-1.947 0.565-1.947-0.513 0-3.969 0-7.938 0-11.906 0-0.975 1.47-1.215 2.058-0.818 2.703 1.824 5.406 3.648 8.109 5.472 0.31 0.209 0.377 0.459 0.302 0.7zM32 18.654c-0.857 20.541-35.471 16.286-31.715-5.337 1.576-9.073 9.11-13.845 17.388-13.27 9.318 0.647 14.158 9.123 14.326 18.471 0 0.024-0.015 0.043-0.018 0.066 0.003 0.025 0.020 0.042 0.019 0.070zM30.263 18.92c-0.141-6.617-2.487-13.763-8.542-16.608-8.024-3.77-17.479 0.676-19.518 9.838-1.824 8.194 2.232 15.459 9.654 18.087 7.911 2.801 17.973-1.607 18.406-11.318z" fill="white"></path>
</symbol>
<symbol id="icon-paw" viewBox="0 0 34 32">
<path d="M16.99 14.895c1.374-2.092 3.707-1.547 6.788-2.519 4.489-1.396 6.563 0.368 5.953 2.372-0.555 1.96-3.519 2.417-4.571 4.341-1.194 1.867-0.067 4.374-1.665 5.879-1.542 1.462-4.26 0.794-5.309-3.468-0.681-2.856-2.482-4.411-1.195-6.604z"></path>
<path d="M18.489 8.891c0.96 2.096 2.947 3.215 4.384 2.608s1.812-2.886 0.796-4.938c-0.96-2.096-2.891-3.259-4.384-2.608s-1.757 2.842-0.796 4.938z"></path>
<path d="M12.349 19.595c2.391-0.418 4.373 0.453 4.48 1.904s-1.764 2.916-4.14 3.242c-2.391 0.418-4.373-0.453-4.48-1.904s1.764-2.916 4.14-3.242z"></path>
<path d="M11.696 11.852c1.975 1.502 4.497 1.705 5.664 0.443s0.452-3.576-1.523-5.078-4.497-1.705-5.664-0.443c-1.167 1.262-0.452 3.576 1.523 5.078z"></path>
<path d="M11.029 12.394c2.363 0.702 3.745 2.419 3.144 3.877s-2.952 2.064-5.315 1.363c-2.363-0.702-3.745-2.419-3.144-3.877s2.952-2.065 5.315-1.363z"></path>
</symbol>

<symbol id="icon-grooming" viewBox="0 0 36 36">
<path d="M21.1 9.363c-0.085-0.371-0.316-0.65-0.633-0.765-0.023-0.008-0.047-0.009-0.070-0.016 0.228-1.036 0.87-4.801-1.234-7.004-1.219-1.277-3.121-1.782-5.651-1.504-0.046-0.019-0.097-0.030-0.149-0.031-1.987-0.064-3.508 0.484-4.504 1.626-1.953 2.238-1.246 6.013-1.042 6.908-0.030 0.008-0.061 0.010-0.090 0.020-0.318 0.115-0.549 0.394-0.633 0.765-0.076 0.331-0.033 0.712 0.118 1.075 0.278 0.665 0.841 1.090 1.381 1.090 0.058 0 0.115-0.005 0.172-0.015 0.458 1.357 1.223 2.486 2.487 3.179v1.392h-0.656v3.925h7.002v-3.925h-0.657v-1.383c1.266-0.692 2.031-1.824 2.489-3.187 0.056 0.010 0.113 0.014 0.17 0.014 0.54 0 1.103-0.425 1.381-1.089 0.151-0.363 0.194-0.745 0.118-1.075zM7.814 10.22c-0.105-0.251-0.137-0.518-0.088-0.732 0.039-0.169 0.125-0.289 0.236-0.33 0.030-0.011 0.063-0.016 0.098-0.016 0.063 0 0.133 0.018 0.205 0.051 0.074 0.599 0.179 1.18 0.326 1.731-0.247-0.005-0.594-0.269-0.776-0.705zM17.312 16.684c-0.643 0.629-1.84 1.052-3.215 1.052s-2.573-0.424-3.215-1.052h0.694c0.178 0 0.323-0.135 0.323-0.301v-1.392c0.63 0.241 1.362 0.392 2.215 0.432 0.839-0.040 1.56-0.188 2.182-0.425v1.385c0 0.166 0.145 0.301 0.323 0.301h0.694zM19.296 8.874c-0.021 0.185-0.043 0.37-0.069 0.547-0.067 0.453-0.153 0.88-0.258 1.284-0.040 0.152-0.084 0.299-0.13 0.444-0.396 1.263-1.020 2.247-1.984 2.876-0.142 0.093-0.296 0.174-0.454 0.251-0.633 0.312-1.384 0.503-2.289 0.546-0.902-0.043-1.653-0.23-2.287-0.537-0.168-0.081-0.331-0.168-0.483-0.267-0.966-0.63-1.591-1.612-1.988-2.872-0.046-0.145-0.090-0.291-0.13-0.444-0.105-0.403-0.191-0.829-0.258-1.281-0.027-0.178-0.048-0.362-0.069-0.547-0.057-0.495-0.098-1.013-0.122-1.556 0.076-0.441 0.186-0.807 0.318-1.107 0.199-0.031 0.628-0.118 1.133-0.334 0.080 0.102 0.215 0.167 0.353 0.158 0.072-0.003 1.024-0.054 2.030-0.421-0.005 0.042-0.002 0.086 0.009 0.129 0.043 0.168 0.203 0.288 0.389 0.292 0.086 0.003 1.797 0.022 2.853-1.101 0.407 0.908 1.322 2.395 3.187 3.328l0.278 0.357c-0.009 0.087-0.020 0.17-0.030 0.256zM20.379 10.22c-0.182 0.435-0.527 0.699-0.774 0.704 0.146-0.552 0.25-1.132 0.324-1.731 0.072-0.033 0.142-0.050 0.205-0.050 0.035 0 0.068 0.005 0.098 0.016 0.152 0.055 0.213 0.23 0.236 0.33 0.049 0.214 0.016 0.481-0.089 0.732zM13.364 11.002v-0.843c0-0.166 0.145-0.301 0.323-0.301s0.323 0.135 0.323 0.301v0.775h0.497c0.178 0 0.323 0.135 0.323 0.301s-0.145 0.301-0.323 0.301h-0.57c-0.316 0-0.573-0.239-0.573-0.533zM11.819 9.069c0 0.323-0.282 0.585-0.629 0.585s-0.629-0.262-0.629-0.585c0-0.323 0.282-0.585 0.629-0.585s0.629 0.262 0.629 0.585zM17.633 9.069c0 0.323-0.282 0.585-0.629 0.585s-0.629-0.262-0.629-0.585c0-0.323 0.282-0.585 0.629-0.585s0.629 0.262 0.629 0.585zM15.679 12.854c0 0.485-0.817 0.658-1.582 0.658s-1.582-0.173-1.582-0.658c0-0.166 0.145-0.301 0.323-0.301 0.144 0 0.266 0.088 0.308 0.209 0.108 0.060 0.448 0.149 0.951 0.149s0.843-0.089 0.951-0.149c0.042-0.121 0.164-0.209 0.308-0.209 0.178 0 0.323 0.135 0.323 0.301zM31.891 22.231c-0.093-0.152-0.237-0.265-0.409-0.331 0.027-0.165 0-0.339-0.095-0.496-0.093-0.152-0.237-0.265-0.409-0.33 0.027-0.165 0-0.339-0.095-0.496s-0.243-0.267-0.409-0.33c0.027-0.165 0.001-0.34-0.095-0.496-0.11-0.18-0.288-0.308-0.502-0.363-0.212-0.054-0.437-0.029-0.63 0.073l-0.328 0.173c-0.062-0.095-0.145-0.18-0.246-0.252v-0.329h1.831c0.178 0 0.323-0.135 0.323-0.301s-0.145-0.301-0.323-0.301h-1.831v-0.301h1.831c0.178 0 0.323-0.135 0.323-0.301s-0.145-0.301-0.323-0.301h-1.831v-0.301h1.831c0.178 0 0.323-0.135 0.323-0.301s-0.145-0.301-0.323-0.301h-1.831v-0.301h1.831c0.178 0 0.323-0.135 0.323-0.301s-0.145-0.301-0.323-0.301h-1.831l0.002-0.301h1.829c0.178 0 0.323-0.135 0.323-0.301s-0.145-0.301-0.323-0.301h-1.829c-0.364 0-0.648 0.308-0.648 0.701v1.448c-0.028-0.342-0.164-0.685-0.404-0.98-0.59-0.728-1.602-0.947-2.253-0.489-0.34 0.239-0.512 0.615-0.519 1.023-0.424-0.105-0.861-0.054-1.2 0.184-0.327 0.23-0.519 0.603-0.526 1.023-0.006 0.389 0.141 0.789 0.415 1.127s0.648 0.579 1.052 0.68c0.135 0.034 0.27 0.050 0.402 0.050 0.295 0 0.573-0.082 0.799-0.241 0.021-0.015 0.037-0.035 0.057-0.051l1.014 1.131-0.366 0.734c-0.028 0.045-0.053 0.091-0.076 0.139l-2.131 1.125-3.636-5.555c-0.089-0.136-0.198-0.253-0.314-0.36-0.192-0.231-0.47-0.396-0.793-0.449-0.314-0.097-0.648-0.128-0.98-0.076v4.029c0.079 0.023 0.152 0.056 0.216 0.101 0.119 0.083 0.206 0.2 0.242 0.338l1.59 6.197v-2.518l1.211 1.851c0.385 0.588 1.058 0.914 1.75 0.914 0.343 0 0.69-0.080 1.008-0.249l3.88-2.048c0.016-0.008 0.028-0.020 0.044-0.029 0.030 0.002 0.061 0.006 0.091 0.006 0.252 0 0.508-0.059 0.743-0.183l0.729-0.385 0.045 0.050c0.147 0.164 0.407 0.192 0.591 0.063l0.407-0.286c0.134-0.094 0.185-0.254 0.148-0.409l0.317-0.168c0.193-0.102 0.331-0.267 0.39-0.467s0.031-0.407-0.079-0.586zM30.011 20.843l0.059-0.031c0.028-0.014 0.059-0.022 0.090-0.022 0.016 0 0.033 0.002 0.049 0.006 0.048 0.012 0.087 0.041 0.111 0.080 0.050 0.082 0.019 0.187-0.069 0.233l-0.846 0.447c-0.043 0.022-0.092 0.027-0.139 0.016s-0.087-0.041-0.111-0.080c-0.050-0.082-0.019-0.187 0.069-0.233l0.787-0.416zM28.973 20.375l0.008-0.016c0.006-0.012 0.008-0.025 0.013-0.037 0.006-0.014 0.010-0.028 0.015-0.043l0.556-0.294c0.028-0.015 0.059-0.022 0.090-0.022 0.016 0 0.033 0.002 0.049 0.006 0.048 0.012 0.087 0.041 0.111 0.080 0.031 0.051 0.028 0.11 0.002 0.159-0.016 0.030-0.038 0.057-0.071 0.075l-0.846 0.447c-0.035 0.018-0.075 0.022-0.115 0.018l0.187-0.373zM25.273 18.735c-0.156 0.109-0.355 0.082-0.46 0.056-0.216-0.054-0.43-0.196-0.587-0.389s-0.244-0.423-0.241-0.632c0.002-0.101 0.028-0.286 0.184-0.396 0.078-0.055 0.175-0.081 0.279-0.081 0.253 0 0.555 0.152 0.767 0.413 0.299 0.369 0.325 0.839 0.058 1.027zM25.946 17.194c-0.299-0.368-0.325-0.839-0.057-1.027 0.078-0.055 0.174-0.081 0.279-0.081 0.253 0 0.555 0.153 0.767 0.414 0.157 0.193 0.245 0.423 0.242 0.631-0.002 0.101-0.028 0.286-0.184 0.396s-0.355 0.082-0.459 0.056c-0.216-0.054-0.43-0.196-0.587-0.389zM26.778 19.61c-0.147-0.182-0.109-0.44 0.087-0.577s0.473-0.101 0.62 0.081c0.052 0.064 0.072 0.137 0.080 0.21-0.121 0.073-0.223 0.172-0.287 0.298l-0.070 0.141c-0.158 0.026-0.326-0.025-0.43-0.153zM29.319 23.741l-0.296 0.156c-0.413 0.219-0.942 0.083-1.177-0.301l-0.799-1.308c-0.114-0.187-0.143-0.403-0.082-0.61l0.004-0.007 0.896-1.795c0.023-0.045 0.085-0.075 0.162-0.081 0.057-0.005 0.121 0.001 0.187 0.030s0.113 0.071 0.145 0.114c0.007 0.010 0.016 0.019 0.021 0.029 0.027 0.050 0.034 0.1 0.015 0.138l-0.793 1.584c-0.013 0.025-0.015 0.052-0.020 0.078-0.023 0.13 0.042 0.263 0.177 0.322 0.044 0.019 0.090 0.028 0.136 0.028s0.090-0.012 0.132-0.029v1.428c0 0.166 0.145 0.301 0.323 0.301s0.323-0.135 0.323-0.301v-1.043l0.979 1.092-0.333 0.176zM29.91 22.382c-0.043 0.022-0.093 0.029-0.139 0.016s-0.087-0.041-0.111-0.080c-0.050-0.082-0.019-0.187 0.069-0.233l0.846-0.447c0.028-0.015 0.059-0.022 0.090-0.022 0.016 0 0.033 0.002 0.049 0.006 0.047 0.012 0.087 0.041 0.111 0.080 0.050 0.082 0.019 0.187-0.069 0.233l-0.846 0.447zM31.347 22.658c-0.013 0.044-0.044 0.081-0.086 0.103 0 0 0 0-0 0l-0.845 0.447c-0.038 0.021-0.081 0.024-0.122 0.018-0.052-0.009-0.101-0.036-0.129-0.082-0.050-0.082-0.019-0.187 0.069-0.233l0.846-0.447c0.028-0.014 0.059-0.022 0.090-0.022 0.005 0 0.010 0.002 0.015 0.002 0.011 0.001 0.023 0.002 0.034 0.004 0.048 0.012 0.087 0.041 0.111 0.081s0.030 0.085 0.017 0.13zM20.551 31.361l-0.18-3.894c-0.001-0.010-0.002-0.020-0.005-0.031l-1.761-6.865c-0.006-0.026-0.020-0.049-0.038-0.070-0.048-0.057-0.131-0.094-0.224-0.094h-8.492c-0.093 0-0.176 0.037-0.224 0.094-0.018 0.021-0.032 0.044-0.038 0.070l-1.546 6.030-0.241-0.126c-0.051-0.026-0.102-0.047-0.152-0.068l1.52-5.928c0.035-0.138 0.123-0.255 0.242-0.338 0.064-0.044 0.137-0.078 0.215-0.1v-4.014c-0.754-0.227-1.614-0.035-2.17 0.555l-6.948 7.366c-0.385 0.409-0.565 0.951-0.493 1.49s0.389 1.025 0.87 1.333l3.986 2.555c0.124 0.080 0.256 0.14 0.391 0.191 0.163 0.174 0.357 0.323 0.577 0.437l1.815 0.941c0.004 0.002 0.008 0.002 0.011 0.004l-0.022 0.464-0.020 0.431c-0.003 0.059 0.029 0.102 0.056 0.128 0.051 0.050 0.129 0.079 0.211 0.079h12.414c0.083 0 0.16-0.029 0.212-0.079 0.027-0.026 0.058-0.070 0.056-0.128l-0.020-0.431zM5.103 24.849l2.477-2.625v4.154c-0.081-0.031-0.163-0.055-0.244-0.076-0.048-0.037-0.089-0.078-0.141-0.112l-2.091-1.341zM9.953 28.41c-0.029 0.049-0.098 0.067-0.15 0.040-0 0-0 0-0 0l-1.469-0.761c-0.081-0.042-0.177-0.040-0.264-0.008-0.079 0.028-0.149 0.080-0.191 0.149s-0.053 0.152-0.029 0.229c0.023 0.077 0.079 0.142 0.154 0.181l0.001 0.001 1.759 0.912c0.034 0.018 0.047 0.046 0.052 0.061s0.010 0.046-0.009 0.078c-0.019 0.032-0.049 0.043-0.066 0.048s-0.050 0.009-0.084-0.009l-1.76-0.913c-0.036-0.018-0.075-0.027-0.114-0.030-0.070-0.005-0.14 0.015-0.203 0.049-0.006 0.003-0.012 0.006-0.018 0.009-0.048 0.030-0.092 0.066-0.12 0.112-0.042 0.070-0.052 0.152-0.029 0.229 0.020 0.066 0.067 0.119 0.126 0.159 0.010 0.007 0.017 0.016 0.028 0.022l1.469 0.761c0.034 0.018 0.047 0.046 0.052 0.062s0.010 0.045-0.009 0.078c-0.019 0.032-0.049 0.044-0.066 0.048s-0.049 0.009-0.084-0.009l-1.633-0.846c-0.102-0.053-0.259-0.032-0.359 0.025-0.097 0.056-0.155 0.156-0.152 0.262 0.002 0.056 0.022 0.108 0.053 0.154 0.028 0.041 0.066 0.077 0.113 0.101l1.125 0.583c0.034 0.018 0.047 0.046 0.052 0.061s0.010 0.046-0.009 0.078c-0.029 0.049-0.098 0.068-0.15 0.040l-1.815-0.941c-0.301-0.156-0.538-0.405-0.667-0.702-0.175-0.402-0.155-0.841 0.053-1.175 0.253-0.406 0.74-0.707 1.282-0.707 0.22 0 0.448 0.051 0.674 0.162 0.006 0.003 0.013 0.005 0.020 0.009l2.395 1.256c0.034 0.018 0.047 0.047 0.052 0.062s0.010 0.046-0.009 0.077zM17.943 26.919c-0.009 0.528-0.557 0.759-0.836 0.351l-0.281-0.41c-0.075 0.243-0.188 0.471-0.336 0.679 0.001 0.032 0.005 0.064 0.005 0.097 0 1.363-1.073 2.468-2.398 2.468s-2.398-1.105-2.398-2.468c0-0.033 0.003-0.064 0.005-0.097-0.147-0.208-0.261-0.436-0.336-0.679l-0.281 0.41c-0.279 0.408-0.827 0.177-0.837-0.351-0.004-0.247-0.014-0.503-0.031-0.754-0.061-0.881 1.229-1.295 1.81-1.436 0.517-0.346 1.251-0.501 2.068-0.501s1.551 0.156 2.068 0.501c0.581 0.141 1.871 0.555 1.81 1.436-0.018 0.251-0.027 0.507-0.032 0.754zM13.114 28.749c0-0.371 0.44-0.672 0.983-0.672s0.983 0.301 0.983 0.672c0 0.371-0.44 0.672-0.983 0.672s-0.983-0.301-0.983-0.672z"></path>
</symbol>

<symbol id="icon-nutrition" viewBox="0 0 38 32">
<path d="M26.898 19.756c-0.898-0.177-1.786 0.409-2.162 1.425-0.073 0.197-0.122 0.401-0.151 0.608 0.927-0.554 1.737-1.222 2.436-2.009l-0.124-0.024z"></path>
<path d="M27.731 9.912c1.684-1.344 2.161-4.107 1.065-6.172s-3.349-2.65-5.033-1.306c-1.684 1.344-2.161 4.107-1.065 6.172s3.349 2.65 5.033 1.306z"></path>
<path d="M34.408 11.038c-1.573-2.389-3.71-2.417-4.89-1.442s-1.094 3.449-0.108 5.11c0.045 0.092 0.092 0.187 0.139 0.281 0.34-1.264 0.387-2.181 0.388-2.194 0.035-1.072 0.744-1.909 1.615-1.909 0.020 0 0.040 0 0.061 0.001 0.891 0.040 1.589 0.962 1.556 2.055v0.003l-0.001 0.018c-0.027 0.612-0.197 2.812-1.28 5.427-0.099 0.24-0.215 0.503-0.348 0.781 0.227 0.532 0.445 1.075 0.644 1.627l-1.379-0.272c-0.933 1.533-2.36 3.271-4.485 4.634l6.166 6.26c0.377 0.383 0.834 0.57 1.288 0.57 0.581 0 1.158-0.306 1.558-0.898 0.711-1.055 0.592-2.618-0.268-3.49l-1.483-1.506 0.48 0.095c0.149 0.029 0.296 0.036 0.44 0.026 0.348 0.020 0.758-0.129 1.262-0.344 1.399-0.598 2.986-1.653 2.573-4.866-0.832-4.317-1.779-6.666-3.926-9.967z"></path>
<path d="M31.598 18.209c1.164-2.81 1.239-5.136 1.246-5.283 0.026-0.876-0.531-1.612-1.245-1.644-0.713-0.033-1.312 0.649-1.34 1.523l-0-0c-0.002 0.101-0.11 2.014-1.055 4.169-0.955 2.159-2.671 4.584-6.146 6.003-0.678 0.274-1.047 1.172-0.823 2.004 0.179 0.667 0.685 1.090 1.228 1.090 0.134 0 0.271-0.026 0.406-0.080 4.249-1.705 6.576-4.976 7.729-7.783z"></path>
<path d="M14.561 25.755c0.588 0.137 1.296 0.363 1.483 0.606 0.504 0.652 0.75 1.998 1.403 2.093 0.456 0.066 0.617 0.054 1.182-0.394 0.558-0.443 0.028-2.166-0.105-2.828-0.189-0.94 0.261-1.972 0.268-2.035 0.006-0.052 0.394-1.050 1.515-0.671 0.392 0.133 0.162-0.755-0.451-1.198-0.729-0.527-1.257-0.281-1.79 0.232-1.029-0.966-2.642-0.778-3.559-0.357-0.147 0.732-0.203 1.441-0.203 2.093-0 0.991 0.129 1.85 0.257 2.46zM17.175 23.671c0.24-0.201 0.567-0.125 0.73 0.169s0.101 0.695-0.138 0.895c-0.24 0.201-0.567 0.125-0.731-0.169s-0.102-0.695 0.139-0.895z"></path>
<path d="M13.846 21.18c-0.239 0.004-0.466-0.004-0.683-0.025-0.076-0.023-0.155-0.038-0.237-0.033-0.005 0-0.010 0.002-0.015 0.003-3.298-0.46-4.196-3.52-8.050-0.344-1.164-0.419-2.552-1.321-3.603-3.246-0.212-0.387-0.64-0.488-0.955-0.228-0.316 0.26-0.4 0.784-0.186 1.171 1 1.812 2.235 2.873 3.395 3.495-0.014 0.035-0.028 0.076-0.042 0.116-0.297 0.548-0.53 1.271-0.681 2.234-0.021 0.141-0.965 7.527 0.517 7.527s1.889-5.588 2.717-6.303c0.117 0.013 2.315 2.838 4.193 2.483 0.44-0.084 1.036-0.417 1.532-0.771l0.812 3.989c0.091 0.448 0.417 0.751 0.783 0.751 0.040 0 0.081-0.004 0.121-0.011 0.412-0.076 0.71-0.521 0.688-1.032l-0.211-4.967c-0.142-0.663-0.285-1.6-0.286-2.695 0-0.658 0.053-1.373 0.19-2.115z"></path>
<path d="M21.060 30.935h-0.204l-0.417-1.583h-4.666l-0.417 1.583h-0.204c-0.164 0-0.298 0.164-0.298 0.366s0.134 0.365 0.298 0.365h5.908c0.164 0 0.298-0.164 0.298-0.365s-0.134-0.366-0.298-0.366z"></path>
</symbol>

<symbol id="icon-training" viewBox="0 0 32 32">
<path d="M6.231 25.595l1.154-3.878-0.42-1.144c-0.891-0.149-1.626-0.597-2.098-1.193l-1.573 5.221-3.094 5.221c-0.42 0.696-0.157 1.591 0.577 1.989s1.678 0.149 2.098-0.547l3.251-5.37c0.052-0.099 0.105-0.199 0.105-0.298z"></path>
<path d="M1.090 14.764c0.483 0.253 1.126 0.051 1.394-0.456l2.413-4.658 0.429-0.304 0.215-1.266c0.107-0.658 0.429-1.266 0.858-1.772l-2.896 1.772c-0.161 0.101-0.268 0.253-0.375 0.405l-2.521 4.911c-0.268 0.506-0.054 1.114 0.483 1.367z"></path>
<path d="M10.338 5.408c1.631 0 2.954-1.211 2.954-2.704s-1.322-2.704-2.954-2.704c-1.631 0-2.954 1.211-2.954 2.704s1.322 2.704 2.954 2.704z"></path>
<path d="M28.969 25.591c0 0 0.052 0.050 0.052 0.1 0.418-0.249 0.575-0.797 0.575-0.797 1.569 0.448 1.883-0.946 1.883-0.946 0.209-0.398-0.837-0.797-0.837-0.797-0.052-0.996-1.255-1.295-1.255-1.295-0.575-0.498-0.418 0-0.418 0-0.575-0.050-0.942 0.149-0.942 0.149-0.942-0.847-1.517 0.448-1.517 0.448-0.157 0-0.262 0.050-0.418 0.050 0.942 1.195 1.935 2.241 2.877 3.088z"></path>
<path d="M30.429 28.782c-0.272-0.252-2.227-1.362-2.227-1.362 0.435-0.202 0.489-1.059 0.489-1.362-1.032-0.908-2.119-2.068-3.205-3.379-0.543 0.101-4.129 1.513-7.606 0.050-1.304-0.555-2.445 0.252-2.445 0.252-0.978 1.059-0.543 2.774-0.543 2.774l1.358-1.362c0.706-0.504 0.978-0.403 1.141-0.151 0.109 0.202 0.054 0.454-0.109 0.656-1.304 1.261-0.869 2.572-0.869 2.572l-1.847 1.513c-0.706 0.706 0.109 1.261 0.109 1.261 0.163-0.555 1.467-1.412 1.467-1.412-0.054 0.656 0.272 0.807 0.272 0.807 0.924-0.252 0.706-1.11 0.706-1.11 1.467-0.050 1.63-0.656 1.63-0.656 1.467 0.252 2.173-0.656 2.173-0.656 0.38 0.656 3.694 1.362 3.694 1.362 0.217 0.101 1.467 2.421 1.467 2.421 0.272 0.050 0.543 0.403 0.543 0.403 0.598 0.353 1.847-0.050 1.847-0.050-0.109-0.454-0.761-0.454-0.761-0.454-1.467 0-1.25-2.27-1.25-2.27 0.054-0.303 1.195 0.252 1.195 0.252l2.499 0.857c1.25 0.605 1.793-0.101 1.793-0.101 0.38-0.555-1.521-0.857-1.521-0.857z"></path>
<path d="M18.215 11.014c1.241 2.511 3.885 7.484 7.283 11.521 0.162-0.049 0.378-0.049 0.593-0.098-0.054-0.049-0.108-0.098-0.162-0.197-3.399-3.988-6.043-8.961-7.23-11.423-0.216 0.148-0.432 0.197-0.486 0.197z"></path>
<path d="M18.48 10.434c0.543-0.2 0.869-0.748 0.652-1.247s-0.814-0.798-1.357-0.599l-2.932 0.948c-3.421-2.944-3.584-3.443-4.941-3.642-1.738-0.249-3.367 0.898-3.638 2.495l-1.303 8.382c-0.271 1.597 0.977 3.093 2.715 3.343 0.054 0 0.109 0 0.163 0l1.412 3.892-2.878 3.892c-0.489 0.649-0.326 1.597 0.434 2.046 0.706 0.449 1.738 0.299 2.226-0.399l3.366-4.49c0.271-0.399 0.38-0.848 0.217-1.297l-1.792-4.939c0.271-0.349 0.489-0.798 0.543-1.247l1.195-7.434 1.357 1.197c0.271 0.249 0.706 0.349 1.086 0.2l3.475-1.098z"></path>
</symbol>

<symbol id="icon-bathing" viewBox="0 0 38 32">
<path d="M27.326 14.703c-0.239-0.556-0.658-1.236-1.496-1.792-0.479-0.309-2.334-0.556-2.394 1.174 0 0-0.778 0.124-0.718 0.68 0 0-0.479 1.668 1.796 1.483 0 0 0.419 3.151 0.778 3.83 0 0 0.18 0.618 0.239 1.236h0.958l0.060-1.236c0 0 0.539 0.371 0.958 1.236h1.377c-0.060-0.494-0.12-0.927-0.239-1.236 0 0 2.035 0 2.753-0.927 0 0 0.599 1.174 1.317 1.236v0.988h0.958c0.060-0.185 0.060-0.371 0.12-0.68 0 0 0.359 0.185 0.539 0.68h0.838c-0.12-0.432-1.197-4.448-1.556-4.757 0 0 0.539-0.062 0.718 0.618 0 0 0.299 1.421 0.898 1.359 0 0 0.419-0.927-0.299-2.1 0 0-0.299-0.865-1.856-0.741l-4.489-0.124c-0.599-0.124-1.018-0.494-1.257-0.927z"></path>
<path d="M21.88 9.946c0.359-0.494 0.299-1.236-0.18-1.668-0.479-0.371-1.197-0.309-1.616 0.185-1.137 1.483-3.172 1.73-4.609 1.112l-0.778 2.224c2.454 0.988 5.447 0.494 7.183-1.853z"></path>
<path d="M11.704 6.054c1.62 0 2.933-1.355 2.933-3.027s-1.313-3.027-2.933-3.027c-1.62 0-2.933 1.355-2.933 3.027s1.313 3.027 2.933 3.027z"></path>
<path d="M13.44 21.992l-2.514-1.050 1.496-4.386c-3.352-1.915-4.549-4.942-4.609-5.127-0.359-0.927 0.060-1.915 0.958-2.286s1.856 0.062 2.215 0.988c0.060 0.124 0.778 1.73 2.634 3.027l1.137-3.212c0.12-0.371 0.060-0.741-0.18-1.050-2.155-2.471-4.669-3.398-7.422-2.533-0.778 0.247-1.317 0.865-1.496 1.668l-2.394 12.849c0 0.062 0 0.062 0 0.124s0 0.185 0 0.247l0.12 5.869-1.317-0.309c-0.898-0.185-1.856 0.432-2.035 1.359s0.419 1.915 1.317 2.1l3.412 0.741c0.539 0.124 1.018 0 1.437-0.371s0.658-0.865 0.599-1.421l-0.12-6.178 4.37 1.792v5.375c0 0.988 0.778 1.792 1.736 1.792s1.736-0.803 1.736-1.792v-6.548c0.060-0.741-0.419-1.359-1.077-1.668z"></path>
<path d="M18.049 15.259c-5.686-0.432-7.482-4.695-7.542-4.88-0.239-0.618-0.898-0.865-1.496-0.618s-0.838 0.927-0.599 1.544c0.12 0.247 2.394 5.807 9.517 6.363 0.658 0.062 1.197-0.432 1.197-1.112s-0.419-1.236-1.077-1.297z"></path>
<path d="M28.284 7.228c-1.197 0.247-2.095 1.359-2.095 2.656h5.327c0-1.421-1.018-2.533-2.334-2.718-1.796-2.039-4.669-1.236-6.943 0.803 0.12 0.124 0.239 0.309 0.359 0.494 1.616-1.544 3.831-2.595 5.686-1.236z"></path>
<path d="M37.382 21.869h-16.82c-0.479 0-0.898 0.432-0.898 0.927s0.419 0.927 0.898 0.927h0.18v1.544c0 2.409 1.915 4.386 4.25 4.386h8.081c2.334 0 4.25-1.977 4.25-4.386v-1.544h0.18c0.479 0 0.898-0.432 0.898-0.927-0.12-0.556-0.539-0.927-1.018-0.927z"></path>
<path d="M26.668 11.12l0.060-0.556c0-0.185-0.060-0.309-0.239-0.309s-0.299 0.062-0.299 0.247l-0.060 0.556c0 0.185 0.060 0.309 0.239 0.309 0.12 0 0.239-0.124 0.299-0.247z"></path>
<path d="M25.95 11.861l-0.060 0.556c0 0.185 0.060 0.309 0.239 0.309s0.299-0.062 0.299-0.247l0.060-0.556c0-0.185-0.060-0.309-0.239-0.309-0.12 0-0.239 0.124-0.299 0.247z"></path>
<path d="M27.985 11.367c0.18 0 0.299-0.124 0.299-0.309v-0.618c0-0.185-0.12-0.309-0.299-0.309s-0.299 0.124-0.299 0.309v0.618c0 0.124 0.18 0.309 0.299 0.309z"></path>
<path d="M27.626 12.479c0 0.185 0.12 0.309 0.299 0.309s0.299-0.124 0.299-0.309v-0.618c0-0.185-0.12-0.309-0.299-0.309s-0.299 0.124-0.299 0.309v0.618z"></path>
<path d="M29.601 10.193c-0.18 0-0.299 0.124-0.299 0.309v0.618c0 0.185 0.12 0.309 0.299 0.309s0.299-0.124 0.299-0.309v-0.618c0-0.185-0.12-0.309-0.299-0.309z"></path>
<path d="M29.421 11.923v0.618c0 0.185 0.12 0.309 0.299 0.309s0.299-0.124 0.299-0.309v-0.618c0-0.185-0.12-0.309-0.299-0.309-0.239 0-0.359 0.124-0.299 0.309z"></path>
<path d="M31.157 10.193c-0.18 0-0.239 0.185-0.239 0.309l0.060 0.556c0 0.124 0.12 0.247 0.299 0.247s0.299-0.185 0.299-0.371l-0.12-0.494c0-0.185-0.18-0.309-0.299-0.247z"></path>
<path d="M31.098 11.985l0.060 0.556c0 0.124 0.18 0.247 0.299 0.247 0.18 0 0.299-0.185 0.239-0.309v-0.618c0-0.185-0.18-0.247-0.299-0.247-0.18 0.062-0.299 0.185-0.299 0.371z"></path>
</symbol>

<symbol id="icon-arrow" viewBox="0 0 82 32">
<path fill="#ff9f0e" style="fill: var(--color1, #ff9f0e)" d="M81.414 17.414c0.781-0.781 0.781-2.047 0-2.828l-12.728-12.728c-0.781-0.781-2.047-0.781-2.828 0s-0.781 2.047 0 2.828l11.314 11.314-11.314 11.314c-0.781 0.781-0.781 2.047 0 2.828s2.047 0.781 2.828 0l12.728-12.728zM0 18h80v-4h-80v4z"></path>
</symbol>

<symbol id="icon-arrow-slider" viewBox="0 0 34 32">
<path fill="#fff" style="fill: var(--color1, #fff)" d="M0.586 17.414c-0.781-0.781-0.781-2.047 0-2.828l12.728-12.728c0.781-0.781 2.047-0.781 2.828 0s0.781 2.047 0 2.828l-11.314 11.314 11.314 11.314c0.781 0.781 0.781 2.047 0 2.828s-2.047 0.781-2.828 0l-12.728-12.728zM34 18h-32v-4h32v4z"></path>
</symbol>

<symbol id="icon-fluent-people" viewBox="0 0 32 32">
<path fill="#ff9f0e" style="fill: var(--color1, #ff9f0e)" d="M11.384 9.714c0-1.125 0.446-2.204 1.241-3s1.872-1.243 2.995-1.243c1.123 0 2.201 0.447 2.995 1.243s1.241 1.875 1.241 3-0.446 2.204-1.241 3c-0.794 0.796-1.872 1.243-2.995 1.243s-2.2-0.447-2.995-1.243c-0.794-0.796-1.241-1.875-1.241-3zM15.619 3.048c-1.765 0-3.458 0.702-4.706 1.953s-1.949 2.946-1.949 4.714 0.701 3.464 1.949 4.714c1.248 1.25 2.941 1.953 4.706 1.953s3.458-0.702 4.706-1.953c1.248-1.25 1.949-2.946 1.949-4.714s-0.701-3.464-1.949-4.714c-1.248-1.25-2.941-1.953-4.706-1.953zM5.333 22.442c0-0.964 0.382-1.889 1.063-2.571s1.604-1.065 2.567-1.065h13.311c0.963 0 1.886 0.383 2.567 1.065s1.063 1.607 1.063 2.571v0.274c-0.002 0.113-0.011 0.226-0.024 0.338-0.024 0.21-0.069 0.494-0.157 0.831-0.232 0.889-0.644 1.721-1.209 2.445-1.416 1.821-4.079 3.384-8.895 3.384s-7.478-1.564-8.895-3.384c-0.565-0.724-0.977-1.556-1.21-2.445-0.092-0.357-0.152-0.721-0.177-1.088-0.001-0.027-0.002-0.054-0.002-0.081v-0.028l-0.001-0.010v-0.236zM7.753 22.657v0.015c0.017 0.204 0.051 0.406 0.103 0.604 0.109 0.422 0.33 0.991 0.776 1.565 0.853 1.096 2.727 2.45 6.987 2.45s6.135-1.354 6.987-2.448c0.362-0.464 0.625-0.997 0.774-1.566 0.052-0.198 0.087-0.4 0.104-0.604l0.001-0.015v-0.216c0-0.321-0.128-0.63-0.354-0.857s-0.535-0.355-0.856-0.355h-13.312c-0.321 0-0.629 0.128-0.856 0.355s-0.354 0.536-0.354 0.857v0.216z"></path>
</symbol>

<symbol id="icon-facebook" viewBox="0 0 32 32">
<path fill="#ff9f0e" style="fill: var(--color1, #ff9f0e)" d="M29 16c0-2.571-0.762-5.085-2.191-7.222s-3.459-3.804-5.834-4.788c-2.375-0.984-4.989-1.241-7.511-0.74s-4.838 1.74-6.656 3.558c-1.818 1.818-3.056 4.134-3.558 6.656s-0.244 5.136 0.74 7.511c0.984 2.375 2.65 4.406 4.788 5.834s4.651 2.191 7.222 2.191c3.447-0.003 6.752-1.374 9.189-3.811s3.808-5.742 3.811-9.189zM17 26.95v-7.95h3c0.265 0 0.52-0.105 0.707-0.293s0.293-0.442 0.293-0.707c0-0.265-0.105-0.52-0.293-0.707s-0.442-0.293-0.707-0.293h-3v-3c0-0.53 0.211-1.039 0.586-1.414s0.884-0.586 1.414-0.586h2c0.265 0 0.52-0.105 0.707-0.293s0.293-0.442 0.293-0.707c0-0.265-0.105-0.52-0.293-0.707s-0.442-0.293-0.707-0.293h-2c-1.060 0.003-2.075 0.426-2.825 1.175s-1.172 1.765-1.175 2.825v3h-3c-0.265 0-0.52 0.105-0.707 0.293s-0.293 0.442-0.293 0.707c0 0.265 0.105 0.52 0.293 0.707s0.442 0.293 0.707 0.293h3v7.95c-2.819-0.257-5.43-1.592-7.291-3.725s-2.827-4.902-2.698-7.73c0.129-2.828 1.343-5.497 3.389-7.453s4.768-3.047 7.599-3.047 5.552 1.091 7.599 3.047c2.047 1.956 3.261 4.625 3.389 7.453s-0.838 5.596-2.698 7.73-4.472 3.468-7.291 3.725z"></path>
</symbol>

<symbol id="icon-instagram" viewBox="0 0 32 32">
<path fill="none" stroke="#ff9f0e" style="stroke: var(--color1, #ff9f0e)" stroke-linejoin="round" stroke-linecap="round" stroke-miterlimit="4" stroke-width="2.1" d="M16 21.333c1.414 0 2.771-0.562 3.771-1.562s1.562-2.357 1.562-3.771c0-1.414-0.562-2.771-1.562-3.771s-2.357-1.562-3.771-1.562-2.771 0.562-3.771 1.562c-1 1-1.562 2.357-1.562 3.771s0.562 2.771 1.562 3.771c1 1 2.357 1.562 3.771 1.562z"></path>
<path fill="none" stroke="#ff9f0e" style="stroke: var(--color1, #ff9f0e)" stroke-linejoin="miter" stroke-linecap="butt" stroke-miterlimit="4" stroke-width="2.1" d="M4 21.333v-10.667c0-1.768 0.702-3.464 1.953-4.714s2.946-1.953 4.714-1.953h10.667c1.768 0 3.464 0.702 4.714 1.953s1.953 2.946 1.953 4.714v10.667c0 1.768-0.702 3.464-1.953 4.714s-2.946 1.953-4.714 1.953h-10.667c-1.768 0-3.464-0.702-4.714-1.953s-1.953-2.946-1.953-4.714z"></path>
<path fill="none" stroke="#ff9f0e" style="stroke: var(--color1, #ff9f0e)" stroke-linejoin="round" stroke-linecap="round" stroke-miterlimit="4" stroke-width="2.1" d="M23.333 8.681l0.014-0.015"></path>
</symbol>

<symbol id="icon-close" viewBox="0 0 32 32">
<path d="M31.708 25.708c-0-0-0-0-0-0l-9.708-9.708 9.708-9.708c0-0 0-0 0-0 0.105-0.105 0.18-0.227 0.229-0.357 0.133-0.356 0.057-0.771-0.229-1.057l-4.586-4.586c-0.286-0.286-0.702-0.361-1.057-0.229-0.13 0.048-0.252 0.124-0.357 0.228 0 0-0 0-0 0l-9.708 9.708-9.708-9.708c-0-0-0-0-0-0-0.105-0.104-0.227-0.18-0.357-0.228-0.356-0.133-0.771-0.057-1.057 0.229l-4.586 4.586c-0.286 0.286-0.361 0.702-0.229 1.057 0.049 0.13 0.124 0.252 0.229 0.357 0 0 0 0 0 0l9.708 9.708-9.708 9.708c-0 0-0 0-0 0-0.104 0.105-0.18 0.227-0.229 0.357-0.133 0.355-0.057 0.771 0.229 1.057l4.586 4.586c0.286 0.286 0.702 0.361 1.057 0.229 0.13-0.049 0.252-0.124 0.357-0.229 0-0 0-0 0-0l9.708-9.708 9.708 9.708c0 0 0 0 0 0 0.105 0.105 0.227 0.18 0.357 0.229 0.356 0.133 0.771 0.057 1.057-0.229l4.586-4.586c0.286-0.286 0.362-0.702 0.229-1.057-0.049-0.13-0.124-0.252-0.229-0.357z"></path>
</symbol>
</defs>
</svg>
